<svg xmlns="http://www.w3.org/2000/svg" xmlns:xlink="http://www.w3.org/1999/xlink" width="359" height="98" viewBox="0 0 359 98" version="1.1">
    <!-- Generator: sketchtool 49.3 (51167) - http://www.bohemiancoding.com/sketch -->
    <title>CB36E19A-0B17-41A2-B44B-06539F15B89C</title>
    <desc>Created with sketchtool.</desc>
    <defs>
        <polygon id="path-1" points="3.72840325e-05 0.241328467 59.5970386 0.241328467 59.5970386 60.7883701 3.72840325e-05 60.7883701"/>
        <polygon id="path-3" points="0 98 359 98 359 1 0 1"/>
    </defs>
    <g id="Site-desktop" stroke="none" stroke-width="1" fill="none" fill-rule="evenodd">
        <g id="Site/home" transform="translate(-152.000000, -27.000000)">
            <g id="Page-1" transform="translate(152.000000, 27.000000)">
                <path d="M29.0027667,22.3856453 C33.1958414,22.3856453 36.615085,25.8053256 36.615085,30.00149 C36.615085,34.1951001 33.1958414,37.6092463 28.9972333,37.6092463 C27.4751101,37.6092463 26.0049163,37.1605543 24.7424394,36.3151061 C24.2652861,35.9868883 23.7213059,35.9566633 23.243727,35.9566633 L23.2369166,35.9566633 L23.1522123,35.9566633 C23.1824334,35.5109512 23.1849873,34.9447649 22.8359546,34.4603137 C22.5720518,34.101871 22.3426267,33.7136289 22.1498074,33.3198527 C21.6449869,32.2773036 21.3878945,31.1670675 21.3878945,30.00149 C21.3878945,25.8053256 24.8071381,22.3856453 29.0027667,22.3856453 M28.9972333,20 C23.4889012,20 19,24.4864945 19,30.00149 C19,31.5280645 19.3349863,32.9971691 19.999851,34.3619761 C20.2199119,34.8187565 20.4825377,35.2674485 20.7753847,35.6914497 C20.7724051,35.7625423 20.7655947,35.8557715 20.7613382,35.9460207 C20.7204759,36.4930504 20.6685466,37.2427151 21.2223168,37.7952789 C21.7339477,38.3095294 22.4000894,38.3533769 22.9840807,38.3533769 L23.243727,38.3533769 C23.3543959,38.3533769 23.4408028,38.3559311 23.5050759,38.3559311 C25.1391449,39.4282795 27.0388192,40 28.9972333,40 C34.515781,40 39,35.5135055 39,30.00149 C39,24.4864945 34.515781,20 28.9972333,20" id="Fill-1" fill="#FFFFFF"/>
                <path d="M358.926998,30.9759272 C358.919082,28.203556 358.264701,25.6414874 356.980568,23.306952 C355.688078,20.9812528 353.963293,19.0730662 351.746843,17.6009481 C350.506686,16.7725503 349.141634,16.1297137 347.644211,15.6728799 C346.134474,15.2156043 344.582079,15 342.969436,15 C341.355033,15.0044181 339.792964,15.2403458 338.293781,15.712643 C337.875998,15.8381176 335.778726,16.5869892 334.725912,17.2143625 L334.192029,17.6663363 L334.173998,17.6769398 C332.848086,18.4646909 331.473799,19.5192964 330.299608,21.0267595 C328.354937,23.5070929 327.580059,26.7725264 327.230001,29.323108 L327,33.3413894 L327.132811,51.7384472 L327.140727,51.7384472 L327.140727,52 L334.268549,51.9739331 L334.173998,31.0660569 C334.173998,30.7249779 334.351666,30.4280801 334.381131,30.087443 C334.46073,29.2634633 334.530653,28.4439018 334.860922,27.6764741 C335.310809,26.6262866 335.922971,25.6975975 336.712801,24.9089628 C337.491198,24.1154682 338.410761,23.4929549 339.459617,23.0250758 C340.527383,22.5576386 341.644843,22.3265708 342.855095,22.3066893 C344.332289,22.3066893 345.696461,22.6583717 346.976637,23.3467151 C348.249777,24.0297566 349.266089,24.943866 350.051082,26.1142264 L350.09374,26.0740214 C350.424009,26.5710601 350.863341,26.9929907 351.093342,27.570881 C351.571374,28.6656915 351.803573,29.8104268 351.808411,31.0064122 L351.878334,51.9142884 L359,51.8891052 L358.926998,30.9759272 Z" id="Fill-3" fill="#FFFFFF"/>
                <path d="M94.0729589,19.5948798 C95.5995671,20.5984596 96.9197836,21.8594568 98,23.3761321 L94.0962265,26.5347126 L92.6058123,27.7657068 C91.830659,26.6338531 90.821107,25.7294137 89.5788797,25.0476056 C88.334498,24.3753636 86.9905831,24.0335899 85.5488583,24.038373 C84.3755719,24.0531571 83.2759659,24.2757884 82.2302199,24.730617 C81.1969695,25.2010994 80.2990154,25.8033343 79.5273092,26.5947187 C78.7706838,27.3604484 78.1614193,28.2801067 77.7120114,29.3332568 C77.2587256,30.3851024 77.0458708,31.5030416 77.0458708,32.6888138 L77.095422,45.6640401 L77.1161043,52.9756497 L70.1336925,53 L70.0707841,41.398391 L70.0095991,34.9038206 C70.0095991,34.9038206 69.6558465,27.4056704 73.2433541,22.7682445 C75.7321174,19.5705295 79.1718331,18.2903999 80.9914397,17.7077323 C82.4297174,17.236815 83.9442609,17.0007042 85.5230055,17.0007042 C87.1004575,16.9854852 88.6197406,17.2172478 90.070083,17.6672934 C91.5083607,18.132123 92.8363331,18.7747968 94.0729589,19.5948798" id="Fill-5" fill="#FFFFFF"/>
                <path d="M116.569031,45.9865191 C118.108252,45.9713337 119.562308,45.6802094 120.927631,45.1088074 C122.31079,44.5408763 123.499093,43.7525411 124.515728,42.746405 C125.539944,41.740269 126.348347,40.5558138 126.912847,39.2195054 C127.498304,37.8775567 127.784567,36.467491 127.778324,34.9632763 C127.778324,33.4590617 127.471996,32.0433557 126.882526,30.7018409 C126.299745,29.3603261 125.490895,28.2066755 124.481395,27.1905604 C123.434439,26.1935355 122.232313,25.4247243 120.86476,24.8572271 C119.48606,24.2953702 118.018628,24.0137909 116.497689,24.0237698 C114.950441,24.0285424 113.507533,24.315328 112.131063,24.8871639 C110.751025,25.4637723 109.551129,26.2477688 108.538507,27.2547726 C107.511616,28.2609087 106.701429,29.4293109 106.110622,30.766487 C105.504208,32.1119066 105.208581,33.5323851 105.212148,35.0274886 C105.212148,36.5321371 105.523827,37.9569543 106.142726,39.2932627 C106.734871,40.6295711 107.562002,41.7992748 108.592905,42.8006383 C109.618904,43.7963617 110.824598,44.5755856 112.203297,45.1383103 C113.581997,45.6997334 115.031594,45.9865191 116.569031,45.9865191 M116.427238,17.0003411 C119.009401,16.9855897 121.400277,17.4493928 123.655156,18.3665863 C125.903346,19.2885523 127.874637,20.5662888 129.553868,22.1941554 C131.236667,23.8320009 132.568548,25.7353726 133.524987,27.9155511 C134.496141,30.1048408 134.983502,32.4381741 135,34.9333396 C135,37.4289389 134.53315,39.7813623 133.586521,41.9567683 C132.632756,44.1469257 131.321386,46.0607102 129.646168,47.7024605 C127.967383,49.3407399 126.000105,50.6380003 123.772871,51.5690776 C121.530924,52.5266206 119.128901,52.9999688 116.556546,52.9999688 C113.986422,53.0043075 111.583953,52.5556897 109.335762,51.6185383 C107.087572,50.7013448 105.116727,49.4236084 103.436158,47.7822919 C101.760494,46.1591979 100.429059,44.2601648 99.4489869,42.0752138 C98.4885344,39.8954692 98.000282,37.5577972 98.000282,35.0565576 C97.9869053,32.5609583 98.4492958,30.2185138 99.4043977,28.0339966 C100.34969,25.8481779 101.670424,23.9248483 103.340737,22.2883044 C105.016847,20.6400461 106.98145,19.3484259 109.218047,18.4208196 C111.464453,17.4793296 113.858005,17.0051137 116.427238,17.0003411" id="Fill-7" fill="#FFFFFF"/>
                <path d="M158.659467,44.9526259 C160.186966,44.9478374 161.639422,44.6557399 163.001294,44.0824277 C164.365386,43.5086803 165.550086,42.7116153 166.574488,41.7016805 C167.594004,40.7030638 168.391501,39.5146491 168.963869,38.1738736 C169.541566,36.8270035 169.82664,35.4122241 169.821755,33.8881802 C169.816427,32.3832902 169.509151,30.9685108 168.938115,29.6277352 C168.344877,28.276512 167.550044,27.1089925 166.516762,26.1090699 C165.491029,25.1043589 164.307217,24.3329776 162.9338,23.7635833 C161.556387,23.1998481 160.098602,22.9168922 158.582204,22.9273398 C157.044492,22.9321283 155.597364,23.2194374 154.231496,23.7936202 C152.875396,24.3721561 151.674267,25.1583382 150.645425,26.1691436 C149.639674,27.1725487 148.834628,28.3309266 148.236506,29.6717022 C147.641492,30.9837469 147.346649,32.3937378 147.346649,33.902981 L147.346649,33.9678431 C147.364411,35.4770863 147.66103,36.9023133 148.272029,38.2478774 C148.867487,39.588653 149.692514,40.7618316 150.71514,41.7613189 C151.740429,42.7660299 152.934454,43.5382818 154.293661,44.1081114 C155.676847,44.6661875 157.127083,44.9630735 158.659467,44.9526259 M158.513378,15.8708554 C161.071495,15.8604078 163.476417,16.3305499 165.714381,17.2512448 C167.954121,18.1715044 169.897242,19.4583007 171.583264,21.0911738 C173.266621,22.7344945 174.594746,24.6446644 175.551209,26.832131 C176.509892,29.0235155 176.994784,31.3694375 176.999669,33.8733794 C177.014322,36.3725329 176.542751,38.7371734 175.606714,40.9202869 C174.652471,43.1173305 173.344772,45.0375127 171.681841,46.6847513 C170.013137,48.3332958 168.056694,49.6301044 165.823615,50.5647294 C163.596308,51.5102374 161.210923,51.9999687 158.640817,51.9999687 C156.09691,52.0043219 153.68799,51.5542044 151.462904,50.6143555 C149.217835,49.6940959 147.251624,48.4116528 145.583808,46.7648495 C143.901339,45.1311058 142.57499,43.2309482 141.616307,41.0391284 C140.649631,38.8516617 140.165183,36.5061751 140.146977,33.9970094 L140.146977,33.9378063 L140,1.02524837 L147.189015,1 L147.220541,19.6811829 C148.804434,18.4879796 150.539744,17.5481308 152.439793,16.8851434 C154.359379,16.2265092 156.376211,15.8804323 158.513378,15.8708554" id="Fill-9" fill="#FFFFFF"/>
                <path d="M200.653182,44.9526265 C202.177459,44.947838 203.618262,44.6557404 204.993352,44.0824283 C206.35601,43.5086808 207.549945,42.7116158 208.564945,41.7125639 C209.590157,40.7030643 210.376494,39.5146496 210.959475,38.1634264 C211.535353,36.827004 211.815965,35.4122245 211.807973,33.8881806 C211.805309,32.3832906 211.517148,30.9685111 210.932391,29.6277355 C210.334313,28.2765123 209.539097,27.1089928 208.513884,26.1138587 C207.48512,25.1043592 206.285857,24.3329779 204.927639,23.7635836 C203.555213,23.1998484 202.099314,22.9273401 200.582141,22.9273401 C199.033001,22.9321286 197.589089,23.2194376 196.226876,23.7936204 C194.86111,24.3721564 193.665399,25.1583384 192.648622,26.1691439 C191.633622,27.1725491 190.825529,28.3309269 190.233224,29.6717025 C189.621826,30.9837472 189.342101,32.3985267 189.346542,33.9029813 L189.346542,33.9678435 C189.35187,35.4818752 189.652462,36.9023138 190.27052,38.2478778 C190.87659,39.5886534 191.684683,40.7618321 192.709007,41.7613193 C193.730224,42.7660304 194.924603,43.5382823 196.299693,44.108112 C197.662795,44.666188 199.121358,44.9630741 200.653182,44.9526265 M200.503996,15.8708555 C203.075241,15.8604079 205.47066,16.33055 207.704903,17.251245 C209.937371,18.1715046 211.90077,19.4583009 213.575121,21.091174 C215.253024,22.7344948 216.577053,24.6446647 217.539217,26.8321314 C218.492944,29.0235159 219,31.3694379 219,33.8733798 C219,36.3725333 218.536013,38.7371739 217.592053,40.9202874 C216.64321,43.117331 215.341381,45.0375132 213.667919,46.6847518 C211.99712,48.3332963 210.049261,49.6301049 207.830557,50.56473 C205.597202,51.510238 203.201783,51.9999693 200.634978,51.9999693 C198.091261,52.0043225 195.684743,51.5450633 193.453163,50.6143561 C191.211815,49.6940965 189.25108,48.4116534 187.580725,46.7648501 C185.896606,45.1311063 184.569469,43.2309487 183.608194,41.0391289 C182.638482,38.8516622 182.170055,36.5061755 182.154514,33.9970098 L182.154514,33.9378067 L182,1.02524837 L189.195579,1 L189.226216,19.6811831 C190.792673,18.4879799 192.531849,17.548131 194.445519,16.8851436 C196.342761,16.2265093 198.36921,15.8804325 200.503996,15.8708555" id="Fill-11" fill="#FFFFFF"/>
                <polygon id="Fill-13" fill="#FFFFFF" points="258 15 241.945666 40.6256084 237.708089 47.4050969 230.299762 59.9800903 222.005667 60 233.780265 40.4955314 219 15.1057429 227.172502 15.0858331 237.987665 33.725334 249.693479 15.0154854"/>
                <path d="M279.98363,36.1860745 C280.63472,37.1084678 281.132664,38.0889715 281.512904,39.1588089 C281.888769,40.2182386 282.035352,41.3574615 281.992908,42.5261733 C281.960529,44.0244661 281.617044,45.4100076 280.978643,46.6867005 C280.346368,47.9633934 279.494,49.0783315 278.446479,50.0345502 C277.411649,51.0007431 276.168101,51.7449024 274.75303,52.2626916 C273.330521,52.7900213 271.83275,53.0307022 270.269346,52.9968768 C268.072354,52.9079766 266.093268,52.3515918 264.32771,51.3056056 C262.546401,50.2756648 261.209216,48.8953273 260.285525,47.1650267 L266.194782,43.0487327 C266.402185,43.877022 266.930759,44.5674076 267.699553,45.1346339 C268.483224,45.6905851 269.408227,45.9867744 270.45531,45.9763666 C271.656851,46.0214672 272.699121,45.680611 273.584743,44.9858888 C274.477367,44.2716519 274.917991,43.3982621 274.905301,42.3488067 C274.905301,42.032669 274.879485,41.8015286 274.847981,41.6679616 L274.847981,41.5300579 C274.798099,41.4368212 274.79066,41.3630991 274.79066,41.2941473 C274.79066,41.2251954 274.75303,41.1501724 274.698335,41.0525991 C274.37279,40.2828538 273.77552,39.6466756 272.910462,39.1540387 C272.77088,39.0660059 272.57004,38.981876 272.288251,38.8873382 L272.348197,38.8136162 C271.714172,38.4536789 271.01495,38.0946091 270.236967,37.7689309 C269.437981,37.4285084 268.645121,37.0638009 267.838697,36.6748086 C267.040586,36.3001269 266.254728,35.9007267 265.464055,35.4614299 C264.688698,35.0329745 263.954471,34.5247258 263.268376,33.944056 L263.268376,33.8746705 L263.055722,33.6617438 C262.091338,32.7658037 261.322982,31.7003029 260.778656,30.5029696 C260.21114,29.2943611 259.960418,28.0176682 260.005049,26.6624829 C260.054493,25.2817118 260.357285,24.0245335 260.957618,22.8267665 C261.547013,21.6532845 262.330246,20.6285476 263.323071,19.7699022 C264.292706,18.8874056 265.444365,18.2074278 266.791614,17.7004801 C268.11261,17.1974353 269.532494,16.9606574 271.042954,17.0053243 C273.011976,17.0881532 274.798099,17.5669131 276.382506,18.414717 C277.961225,19.2733623 279.222712,20.4360029 280.13065,21.8857259 L274.37279,25.8584786 C274.096689,25.346327 273.641189,24.9369526 273.041293,24.5618374 C272.412081,24.2118743 271.714172,24.0245335 270.933126,24.0345077 C269.874229,23.9807339 268.968479,24.2370265 268.217187,24.7838709 C267.46677,25.3354855 267.100532,25.9872754 267.100532,26.7661275 C267.100532,26.9972679 267.105345,27.1546862 267.16004,27.2388161 C267.239677,27.7518351 267.475959,28.1755202 267.849198,28.5306871 C268.217187,28.9001649 268.681876,29.1911502 269.234078,29.4131838 C270.105261,29.9205652 271.1099,30.4335841 272.226555,30.9366289 C273.350211,31.4539844 274.497057,32.0350878 275.63559,32.6669294 C276.476144,33.0268666 277.285194,33.5446558 278.115684,34.2142258 L278.46617,34.5650561 C278.930859,34.9687929 279.426615,35.5212748 279.98363,36.1860745" id="Fill-15" fill="#FFFFFF"/>
                <path d="M303.573037,45.976026 C305.121401,45.9712534 306.573885,45.6801257 307.940298,45.1087172 C309.308496,44.5368747 310.492513,43.7524353 311.518661,42.7467215 C312.54258,41.7405738 313.352438,40.556105 313.927278,39.2093683 C314.502563,37.8773832 314.778165,36.4673013 314.778165,34.9582967 C314.778165,33.4588373 314.482495,32.0431151 313.896507,30.6972461 C313.308735,29.3600546 312.492186,28.2063906 311.48566,27.1950365 C310.449701,26.1936614 309.247846,25.4248413 307.865824,24.8573376 C306.466855,24.2954742 305.035331,24.0134578 303.501684,24.0238707 C301.957779,24.0286433 300.499944,24.3149984 299.12907,24.8872747 C297.7524,25.4638898 296.563923,26.2474614 295.542234,27.2549107 C294.51564,28.2549842 293.71693,29.4290401 293.11355,30.7666655 C292.50571,32.1121006 292.206472,33.5325954 292.206472,35.0277161 C292.222081,36.5319481 292.523994,37.952443 293.140307,39.2935393 C293.74235,40.6298631 294.569155,41.7991464 295.593074,42.8052941 C296.625019,43.7966902 297.831334,44.5754893 299.200424,45.1382204 C300.58646,45.69965 302.037159,45.9864389 303.573037,45.976026 M303.433452,17.0003612 C306.016438,16.9851757 308.413459,17.4489842 310.657963,18.3666221 C312.905589,19.2885987 314.870032,20.5663499 316.550846,22.1938013 C318.253957,23.8316657 319.574883,25.7354932 320.539935,27.9156968 C321.503203,30.1045778 322,32.437938 322,34.9335661 C322,37.4287602 321.546907,39.7812107 320.591666,41.9527369 C319.642669,44.1468244 318.322189,46.0606309 316.64628,47.7024002 C314.974386,49.345471 313.014849,50.6379738 310.778372,51.5694956 C308.536098,52.5209755 306.132833,52.9999694 303.570361,52.9999694 C300.989605,53.0043082 298.58634,52.5465739 296.340498,51.6189569 C294.103576,50.7017529 292.127984,49.4235678 290.437359,47.7822325 C288.744505,46.1595536 287.43116,44.2600648 286.46031,42.0755225 C285.486785,39.8953189 285.000245,37.55762 285.000245,35.0567855 C284.987759,32.5611575 285.451554,30.218686 286.415269,28.0337098 C287.352671,25.8482998 288.670476,23.9249481 290.348614,22.2879514 C292.016049,20.640108 293.982721,19.3480391 296.22232,18.4204221 C298.46281,17.4685084 300.860277,17.0046999 303.433452,17.0003612" id="Fill-17" fill="#FFFFFF"/>
                <path d="M42.2788885,40.7577314 C42.3222957,41.0764001 42.4064794,41.6742874 42.4262099,42.0381045 C42.0473835,42.3821966 41.3975908,42.8705004 40.9481729,43.1996891 L40.8381203,43.2834109 C40.4996318,43.5380828 40.2019198,43.7673314 39.9949683,43.9417883 C39.3745522,44.4603372 38.7212519,44.9337377 38.0561133,45.3418265 C37.4558663,45.7148486 37.3436214,46.3434193 37.3335369,46.9119382 C36.696898,46.5928312 36.0786742,46.403471 35.5450726,46.6068579 C35.0917085,46.7874514 34.6357136,46.9465666 34.1972571,47.0863951 C32.1698339,47.6948024 30.0205198,47.9078327 27.8909362,47.6838441 C23.5708237,47.2604136 19.6746986,45.1673696 16.9176837,41.8088559 C14.1593534,38.4507805 12.8781833,34.2199825 13.3131322,29.8953811 C13.8213034,24.742767 16.8834841,20.1284269 21.6942295,17.2336704 C21.8656661,17.1293469 22.0086029,17.0789385 22.1388245,17.0789385 C22.4382903,17.0789385 22.7842326,17.3086254 23.1420131,17.5330524 C23.5791543,17.8210377 24.0829409,18.1305014 24.7037954,18.1305014 C24.8866318,18.1305014 25.0606991,18.105078 25.2316971,18.0459029 C26.0638877,17.7815876 26.3953609,17.0491318 26.6400196,16.5104196 C26.9548315,15.8130304 27.1433678,15.3957367 28.120249,15.2909749 C29.0168927,15.1954181 29.978428,15.2002398 31.1070152,15.3199049 C40.0322371,16.1965725 46.5805859,24.1891514 45.6905191,33.1083679 C45.6576349,33.4480767 44.8013292,34.0713873 44.2914042,34.4444094 C43.4688597,35.0374751 42.5437163,35.7155775 42.1982125,36.6711452 C41.8917314,37.5039795 42.0245837,38.8299393 42.2788885,40.7577314 M42.1236749,45.1020579 L42.2788885,44.9880911 C43.0457491,44.4046688 43.9169623,43.7673314 44.348842,43.2544809 C44.7811602,42.746452 44.7096918,42.1669747 44.4895866,40.4636094 C44.3948799,39.746057 44.1427674,37.8226482 44.2852658,37.4338461 C44.398826,37.1248207 45.0617724,36.6470369 45.6023893,36.2437698 C46.6218009,35.5003556 47.7823954,34.6583163 47.9086709,33.3279732 C48.3931654,28.4195111 46.9392434,23.6171258 43.803402,19.7900332 C40.6675606,15.9629406 36.2378339,13.590678 31.3297511,13.0975524 C30.0586655,12.973504 28.9436705,12.9686823 27.8861132,13.0778274 C25.6469155,13.3118977 24.9936152,14.7325376 24.6099657,15.5899185 C24.5740123,15.6596136 24.5490203,15.723172 24.5279743,15.7687587 C24.4486137,15.723172 24.3731992,15.6793386 24.3275997,15.6490936 C23.8053979,15.3155216 23.0810677,14.8513261 22.1388245,14.8513261 C21.5995229,14.8513261 21.0606598,15.0060579 20.544158,15.3199049 C15.1160656,18.5885602 11.6781277,23.8205127 11.0923497,29.6753375 C10.6043475,34.5934429 12.0617772,39.4019649 15.1945494,43.2242358 C18.3260062,47.0465067 22.7579252,49.4174544 27.6739002,49.9013749 C28.2912471,49.97107 28.9085939,50 29.5268177,50 C31.3297511,50 33.1160232,49.726918 34.8325806,49.2131908 C35.2539374,49.0882657 35.6783634,48.9444922 36.1001586,48.7849387 C36.2444108,48.8541954 36.4263703,48.9488755 36.5570303,49.0137489 C37.2747837,49.4021127 38.1025897,49.726918 38.7304595,49.4218377 C39.6064958,48.9944622 39.5801884,47.9827878 39.5661577,47.314767 C39.558704,47.2349903 39.558704,47.1363652 39.558704,47.0316034 C40.2054274,46.6068579 40.835928,46.1444157 41.4291597,45.6403318 C41.5948963,45.50138 41.8483242,45.3115815 42.1236749,45.1020579" id="Fill-19" fill="#FFFFFF"/>
                <g id="Group-23">
                    <mask id="mask-2" fill="white">
                        <use xlink:href="#path-1"/>
                    </mask>
                    <g id="Clip-22"/>
                    <path d="M29.8326131,57.8519102 C24.7352409,57.8519102 19.7985985,56.434662 15.5346569,53.7422022 C15.5219562,53.4786109 15.5456058,53.0373628 15.5530511,52.8205234 C15.6187445,51.7278664 15.7015182,50.3662752 14.6955328,49.5309759 C13.9291095,48.8978226 12.6345109,49.0104723 11.3920292,49.2575891 C11.0289635,49.3381803 10.6190365,49.4138737 10.3282336,49.4445964 C9.91480292,49.0042387 9.51363504,48.5536401 9.14443796,48.093246 C8.60837956,47.4462898 7.64750365,47.3082606 6.7619562,47.5660635 C7.18327007,46.4533701 7.37334307,45.7035599 6.93144526,44.9853628 C2.49451095,37.7481803 1.6580146,28.697027 4.67334307,20.7158226 C5.33334307,20.5537496 6.4260438,20.1686036 6.98618978,18.7914285 C7.25859854,18.119538 7.23670073,17.4908372 7.14823358,16.9543044 C7.51743066,17.0504796 7.92735766,17.1671365 8.3219562,17.2886912 C9.5429781,17.6324285 10.693927,17.9668153 11.5488175,17.9668153 C12.4602044,17.9668153 12.964292,17.5772168 13.2196204,17.2477277 C14.2277956,15.967173 13.2721752,14.4386109 12.1715912,12.6834139 C11.9867737,12.3939978 11.5203504,11.6401803 11.2632701,11.1392679 C11.6565547,11.0577861 12.2499854,10.9362314 12.9204964,10.4509029 C13.8577226,9.7821292 14.1568467,8.93169124 14.3596204,8.36443577 C14.3994745,8.26425328 14.4625401,8.07635547 14.4419562,8.07635547 L14.4380146,8.07635547 C15.1413723,7.58034088 15.8517372,7.13018759 16.5515912,6.72500511 C20.5724672,4.41234818 25.1416642,3.18745036 29.7730511,3.18745036 C35.8199124,3.18745036 41.7507153,5.26723869 46.4666277,9.05947956 C46.954073,9.44284453 47.4134891,9.84802701 47.844,10.2474212 C48.0664818,10.4509029 48.2521752,10.5924942 48.4203504,10.7189467 C48.7124672,10.942465 48.9112993,11.0885088 49.3527591,11.7265599 C49.5029781,11.9438445 49.5730511,12.4247204 49.6348029,12.894465 C49.7346569,13.5743701 49.8494015,14.4136766 50.3061898,15.1982168 C50.7664818,15.9929978 51.5184526,16.5446693 52.1845839,17.0255453 C52.8007883,17.4752533 53.4353869,17.9467788 53.7161168,18.5091365 C53.9206423,18.9285672 53.2531971,20.1334285 52.8870657,20.7959686 C52.2984526,21.8436547 51.7475036,22.8405818 52.0448759,23.8940562 C52.3921752,25.0931292 53.5781606,25.6710708 54.734365,26.2427788 C55.2896934,26.5108226 56.4458978,27.0731803 56.5689635,27.436954 C56.6609343,27.7049978 56.6609343,28.0945964 56.6648759,28.5447496 C56.6648759,28.7633701 56.6648759,28.9757569 56.6745109,29.1890343 C57.1269197,38.6894504 52.8200584,47.5923336 45.1553869,53.0177715 C44.4003504,53.5445088 44.1323212,53.4082606 43.8927591,53.3672971 C43.803854,53.3472606 43.6650219,53.2920489 43.4950949,53.2150197 C42.8131971,52.9269394 41.8996204,52.5983409 41.394219,52.9175891 C40.7561168,53.3160927 40.6948029,54.1674212 40.6461898,54.7845453 C40.6330511,54.9417204 40.6155328,55.1532168 40.6015182,55.2097642 C40.433781,55.5690854 40.3496934,55.7418445 39.6257518,56.0254723 C36.4864818,57.2352314 33.1899854,57.8519102 29.8326131,57.8519102 M59.5562628,28.5353993 C59.5562628,27.9485526 59.5496934,27.2241219 59.3096934,26.4952387 C58.7981606,24.9622241 57.2381606,24.1981657 55.983854,23.5908372 C55.7802044,23.489319 55.264292,23.2413117 54.9656058,23.0689978 C55.0917372,22.8005088 55.2945109,22.4416328 55.4053139,22.2288007 C56.1204964,20.948246 57.2053139,19.0042606 56.293927,17.1822752 C55.704,15.9823117 54.6910073,15.2440781 53.8729051,14.6465453 C53.4415182,14.3321949 52.9483796,13.9635234 52.7950949,13.6999321 C52.6348029,13.4167496 52.5603504,12.9407715 52.4990365,12.4754796 C52.3978686,11.7465964 52.2677956,10.8249175 51.7146569,10.0301365 C51.0095474,9.0180708 50.5562628,8.66943577 50.1415182,8.35998321 C50.0294015,8.26915109 49.9172847,8.18766934 49.7845839,8.07190292 C49.3190365,7.6311 48.8048759,7.19074234 48.2622482,6.75082993 C43.0308613,2.55429708 36.4606423,0.241194891 29.7730511,0.241194891 C24.6454599,0.241194891 19.5769927,1.59744307 15.1264818,4.16923869 C14.3661898,4.59891022 13.5826861,5.10561095 12.7926131,5.66173504 C12.0704234,6.17823139 11.8115912,6.89286642 11.6399124,7.37819489 C11.4993285,7.77269124 11.4419562,7.91918029 11.2492555,8.05142117 C11.0745109,8.17787372 10.954073,8.20280803 10.6877956,8.25846496 C10.1999124,8.35998321 9.37962044,8.52161095 8.63553285,9.4691146 C7.57655474,10.8146766 8.62589781,12.4910635 9.76545985,14.3121584 C9.8390365,14.4337131 9.92618978,14.5663993 10.0107153,14.7079905 C9.69976642,14.6260635 9.38618978,14.5352314 9.09976642,14.4541949 C7.95319708,14.119808 6.86750365,13.8161438 6.08750365,13.8161438 C5.03816058,13.8161438 4.5629781,14.3740489 4.36852555,14.7124431 C3.88458394,15.5878153 4.08122628,16.4738737 4.21918248,17.0718518 C4.26823358,17.2735526 4.33786861,17.5816693 4.31509489,17.6680489 C4.26823358,17.7793628 4.26166423,17.8051876 3.83772263,17.8911219 C3.42910949,17.9717131 2.57947445,18.1395745 2.2190365,19.034538 C-1.33278832,27.8528226 -0.587386861,37.949881 4.21567883,46.0931584 C4.12458394,46.3567496 3.98312409,46.7214139 3.85217518,47.0700489 C3.28545985,48.5135672 2.91845255,49.4690854 3.50137226,50.3199686 C3.85217518,50.8306766 4.41976642,51.1192022 5.08064234,51.1192022 C5.68545985,51.1192022 6.2990365,50.8774285 6.88808759,50.6445599 C7.02341606,50.594246 7.18677372,50.5225599 7.33129927,50.472246 C7.69567883,50.8930124 8.07232117,51.3026474 8.46122628,51.7060489 C8.88691971,52.1579832 9.48429197,52.3855088 10.2345109,52.3855088 C10.8025401,52.3855088 11.4209343,52.2532679 11.9867737,52.1379467 C12.2188905,52.0867423 12.4650219,52.0310854 12.6971387,52.0003628 C12.6905693,52.2532679 12.6818102,52.5324431 12.6669197,52.6588956 C12.6073577,53.7622387 12.5272117,55.2814504 13.7158248,56.0499613 C18.5066277,59.1467131 24.0761168,60.7883701 29.8326131,60.7883701 C33.5421022,60.7883701 37.1850219,60.1098007 40.6584526,58.768246 C42.4623942,58.0691949 42.9318832,57.0629175 43.213927,56.4644942 C43.2572847,56.3687642 43.2888175,56.2984139 43.4004964,56.2828299 C43.4915912,56.2828299 43.5800584,56.2930708 43.6746569,56.2984139 C44.4261898,56.3487277 45.4159708,56.4043847 46.8003504,55.4274942 C55.2945109,49.4290124 60.0625401,39.5643774 59.5610803,29.0469978 C59.5562628,28.8791365 59.5562628,28.7019248 59.5562628,28.5353993" id="Fill-21" fill="#FFFFFF" mask="url(#mask-2)"/>
                </g>
                <path d="M263.464455,69.5728571 C263.811885,69.5728571 264.127962,69.4976923 264.412687,69.3468681 C264.697047,69.196044 264.938389,68.9858791 265.137805,68.7143956 C265.336857,68.4434066 265.491433,68.12 265.601896,67.7461538 C265.712359,67.3713187 265.767773,66.9648352 265.767773,66.5257143 L265.767773,66.5 C265.767773,66.0608791 265.712359,65.6519231 265.601896,65.2736264 C265.491433,64.8948352 265.336857,64.5699451 265.137805,64.2984615 C264.938389,64.0274725 264.697047,63.8143407 264.412687,63.6595604 C264.127962,63.5047802 263.811885,63.4266484 263.464455,63.4266484 L262.156398,63.4266484 L262.156398,69.5728571 L263.464455,69.5728571 Z M261,62 L263.473934,62 C263.99198,62 264.467736,62.1137363 264.900474,62.3407143 C265.333212,62.5676923 265.706161,62.8831868 266.019322,63.2857143 C266.331754,63.6887363 266.57346,64.1624725 266.744076,64.7064286 C266.915057,65.2508791 267,65.8398352 267,66.4737912 L267,66.5 C267,67.133956 266.915057,67.7258791 266.744076,68.2742857 C266.57346,68.8226923 266.331754,69.2984066 266.019322,69.7014286 C265.706161,70.103956 265.333212,70.4214286 264.900474,70.6528571 C264.467736,70.8837912 263.99198,71 263.473934,71 L261,71 L261,62 Z" id="Fill-24" fill="#FFFFFF"/>
                <path d="M277.967123,67.4512574 L276.475342,63.8769843 L274.995416,67.4512574 L277.967123,67.4512574 Z M275.79726,62 L277.20274,62 L281,71 L279.39726,71 L278.521918,68.8426709 L274.440622,68.8426709 L273.55295,71 L272,71 L275.79726,62 Z" id="Fill-26" fill="#FFFFFF"/>
                <polygon id="Fill-28" fill="#FFFFFF" points="288.344823 63.4657143 286 63.4657143 286 62 292 62 292 63.4657143 289.655177 63.4657143 289.655177 71 288.344823 71"/>
                <path d="M302.967123,67.4512574 L301.475342,63.8769843 L299.995416,67.4512574 L302.967123,67.4512574 Z M300.79726,62 L302.20274,62 L306,71 L304.39726,71 L303.521918,68.8426709 L299.440622,68.8426709 L298.55295,71 L297,71 L300.79726,62 Z" id="Fill-30" fill="#FFFFFF"/>
                <mask id="mask-4" fill="white">
                    <use xlink:href="#path-3"/>
                </mask>
                <g id="Clip-33"/>
                <polygon id="Fill-32" fill="#FFFFFF" mask="url(#mask-4)" points="261 85 262 85 262 76 261 76"/>
                <polygon id="Fill-34" fill="#FFFFFF" mask="url(#mask-4)" points="269 76 270.523256 76 273 80.2557143 275.476744 76 277 76 277 85 275.581395 85 275.581395 78.5457143 273.011628 82.7890659 272.965116 82.7890659 270.418605 78.5714286 270.418605 85 269 85"/>
                <path d="M283.938897,80.68 C284.457526,80.68 284.866723,80.5296703 285.166489,80.2285165 C285.466681,79.9273626 285.616138,79.5396703 285.616138,79.0664286 L285.616138,79.0412088 C285.616138,78.5071429 285.464552,78.1051099 285.160954,77.8336264 C284.857356,77.5626374 284.449862,77.4271429 283.938897,77.4271429 L282.350649,77.4271429 L282.350649,80.68 L283.938897,80.68 Z M281,76 L284.055142,76 C284.505642,76 284.913562,76.0712088 285.278476,76.2121429 C285.644241,76.3535714 285.9538,76.5573077 286.208857,76.8228571 C286.463487,77.0889011 286.658931,77.4058791 286.795614,77.7742857 C286.931871,78.1431868 287,78.5546154 287,79.0085714 L287,79.0342857 C287,79.5401648 286.918671,79.9837363 286.756014,80.365 C286.593357,80.7467582 286.371514,81.0657143 286.090483,81.3233516 C285.809453,81.58 285.479881,81.7753297 285.102619,81.9078571 C284.725357,82.0408791 284.321695,82.1076374 283.893336,82.1076374 L282.350649,82.1076374 L282.350649,85 L281,85 L281,76 Z" id="Fill-35" fill="#FFFFFF" mask="url(#mask-4)"/>
                <path d="M296.056333,80.4614286 C296.501554,80.4614286 296.856643,80.3259341 297.119658,80.0549451 C297.38345,79.7834615 297.515152,79.4155495 297.515152,78.9502198 L297.515152,78.925 C297.515152,78.433956 297.386558,78.0615934 297.130148,77.8079121 C296.873737,77.5537363 296.512044,77.4266484 296.046232,77.4266484 L294.232323,77.4266484 L294.232323,80.4614286 L296.056333,80.4614286 Z M293,76 L296.151515,76 C296.59596,76 296.989899,76.0796154 297.333333,76.2378571 C297.676768,76.3960989 297.962704,76.6171429 298.191919,76.9 C298.380342,77.1487363 298.524864,77.4355495 298.626263,77.7614286 C298.727273,78.0868132 298.777778,78.4473077 298.777778,78.8414286 L298.777778,78.8666484 C298.777778,79.2355495 298.735431,79.5673626 298.651515,79.8635714 C298.567211,80.1592857 298.451049,80.4208791 298.30303,80.6478571 C298.154623,80.8748352 297.977855,81.0681868 297.772727,81.2264286 C297.567211,81.3846703 297.339938,81.5068132 297.090909,81.5928571 L299,85 L297.535354,85 L295.792541,81.8628571 L295.772727,81.8628571 L294.232323,81.8628571 L294.232323,85 L293,85 L293,76 Z" id="Fill-36" fill="#FFFFFF" mask="url(#mask-4)"/>
                <path d="M308.512295,83.5953039 C308.936475,83.5953039 309.326608,83.5145028 309.681747,83.3529006 C310.036412,83.1912983 310.340006,82.9718445 310.593001,82.6940608 C310.846469,82.4162771 311.044136,82.0911602 311.186948,81.718232 C311.330233,81.3453039 311.401166,80.9475138 311.401166,80.5248619 L311.401166,80.5 C311.401166,80.0773481 311.330233,79.6776456 311.186948,79.3004144 C311.044136,78.9236613 310.844578,78.5961538 310.587327,78.3183702 C310.330076,78.0410646 310.021753,77.8192201 309.663304,77.6533149 C309.303909,77.4878878 308.912358,77.4046961 308.487705,77.4046961 C308.063052,77.4046961 307.673865,77.4854972 307.318726,77.6470994 C306.963588,77.8087017 306.659521,78.0281555 306.406526,78.3059392 C306.153531,78.5837229 305.955391,78.9088398 305.812579,79.281768 C305.669294,79.6546961 305.598361,80.0524862 305.598361,80.4751381 L305.598361,80.5 C305.598361,80.9226519 305.669294,81.3223544 305.812579,81.6995856 C305.955391,82.0768168 306.155422,82.4043243 306.412673,82.6816298 C306.669924,82.9594135 306.977774,83.181258 307.337169,83.346207 C307.695618,83.5125903 308.087642,83.5953039 308.512295,83.5953039 M308.487705,85 C307.82377,85 307.217055,84.8819061 306.668033,84.6457182 C306.118537,84.4095304 305.647068,84.0882384 305.253625,83.6823204 C304.860183,83.2764025 304.553279,82.8021143 304.331967,82.2589779 C304.110183,81.7163196 304,81.1382809 304,80.5248619 L304,80.5 C304,79.886581 304.110183,79.3085423 304.331967,78.765884 C304.553279,78.2232257 304.864439,77.746547 305.266393,77.336326 C305.667875,76.926105 306.143127,76.6009881 306.69215,76.3604972 C307.241173,76.1200064 307.848361,76 308.512295,76 C309.17623,76 309.782945,76.1180939 310.331967,76.3538037 C310.88099,76.5904696 311.352459,76.9117616 311.745902,77.3176796 C312.139344,77.7240756 312.446721,78.1983638 312.668033,78.7410221 C312.889344,79.2836804 313,79.8617191 313,80.4751381 L313,80.5 C313,81.113419 312.889344,81.6914577 312.668033,82.234116 C312.446721,82.7767743 312.135088,83.253453 311.733607,83.663674 C311.331652,84.073895 310.8564,84.39949 310.307377,84.6395028 C309.758354,84.8799936 309.151639,85 308.487705,85" id="Fill-37" fill="#FFFFFF" mask="url(#mask-4)"/>
                <polygon id="Fill-38" fill="#FFFFFF" mask="url(#mask-4)" points="318 76 319.576899 76 322.022967 82.8680851 324.457885 76 326 76 322.626345 85 321.373655 85"/>
                <polygon id="Fill-39" fill="#FFFFFF" mask="url(#mask-4)" points="331 85 332 85 332 76 331 76"/>
                <polygon id="Fill-40" fill="#FFFFFF" mask="url(#mask-4)" points="339 76 340.119042 76 343.8 82.2228571 343.8 76 345 76 345 85 343.989155 85 340.2 78.5971429 340.2 85 339 85"/>
                <path d="M354.433327,85 C353.765839,85 353.158945,84.886203 352.613587,84.658131 C352.068229,84.4305371 351.602255,84.1154439 351.215196,83.7138076 C350.828607,83.3116931 350.528918,82.8388142 350.317539,82.2966052 C350.10569,81.7534399 350,81.1634171 350,80.5251023 L350,80.5002391 C350,79.8949158 350.108978,79.318759 350.326464,78.7722467 C350.543949,78.2247782 350.848805,77.7461616 351.24244,77.336397 C351.635606,76.925676 352.102519,76.60102 352.64412,76.3605164 C353.18572,76.1200128 353.777582,76 354.421584,76 C354.795491,76 355.135576,76.0267758 355.441372,76.0808054 C355.746227,76.1343569 356.029006,76.2108591 356.289707,76.3103119 C356.550408,76.4097646 356.796547,76.5321681 357.028595,76.6775222 C357.261112,76.82192 357.486583,76.9902247 357.706887,77.1805238 L356.753802,78.3366626 C356.591275,78.1960899 356.42405,78.0674706 356.253068,77.9517611 C356.082555,77.8355735 355.903118,77.7380333 355.715695,77.6591404 C355.528272,77.5807257 355.322999,77.5185677 355.098937,77.4731446 C354.874875,77.4272433 354.628736,77.4042926 354.360519,77.4042926 C353.969702,77.4042926 353.604721,77.4874887 353.267453,77.6538809 C352.929247,77.8197949 352.636134,78.0421293 352.388116,78.3199277 C352.139158,78.5982043 351.94375,78.9242947 351.801421,79.2977209 C351.659092,79.6716251 351.587693,80.0660894 351.587693,80.4815917 L351.587693,80.5064549 C351.587693,80.9544706 351.656744,81.3699729 351.794845,81.7520055 C351.932946,82.1340381 352.130233,82.4620411 352.386237,82.7360145 C352.641771,83.0099878 352.946157,83.2261064 353.299395,83.383892 C353.652633,83.5411996 354.049087,83.6200924 354.487347,83.6200924 C354.893195,83.6200924 355.273208,83.559847 355.626446,83.438878 C355.979684,83.3179089 356.286419,83.1577326 356.54618,82.9578707 L356.54618,81.3207246 L354.360519,81.3207246 L354.360519,79.9900653 L358,79.9900653 L358,83.6449556 C357.788151,83.8276045 357.554225,84.0016469 357.297751,84.167561 C357.041278,84.3329969 356.764136,84.4778728 356.466796,84.602667 C356.169456,84.7269829 355.850508,84.8245232 355.508074,84.8943314 C355.166579,84.9650959 354.808173,85 354.433327,85" id="Fill-41" fill="#FFFFFF" mask="url(#mask-4)"/>
                <path d="M263.938897,93.68 C264.457526,93.68 264.866723,93.5296703 265.166489,93.2285165 C265.466681,92.9273626 265.616138,92.5396703 265.616138,92.0664286 L265.616138,92.0412088 C265.616138,91.5071429 265.464552,91.1051099 265.160954,90.8336264 C264.857356,90.5626374 264.449862,90.4271429 263.938897,90.4271429 L262.350649,90.4271429 L262.350649,93.68 L263.938897,93.68 Z M261,89 L264.055142,89 C264.505642,89 264.913562,89.0712088 265.278476,89.2121429 C265.644241,89.3535714 265.9538,89.5573077 266.208857,89.8228571 C266.463487,90.0889011 266.658931,90.4058791 266.795614,90.7742857 C266.931871,91.1431868 267,91.5546154 267,92.0085714 L267,92.0342857 C267,92.5401648 266.918671,92.9837363 266.756014,93.365 C266.593357,93.7467582 266.371514,94.0657143 266.090483,94.3233516 C265.809453,94.58 265.479881,94.7753297 265.102619,94.9078571 C264.725357,95.0408791 264.321695,95.1076374 263.893336,95.1076374 L262.350649,95.1076374 L262.350649,98 L261,98 L261,89 Z" id="Fill-42" fill="#FFFFFF" mask="url(#mask-4)"/>
                <polygon id="Fill-43" fill="#FFFFFF" mask="url(#mask-4)" points="272 89 277.942202 89 277.942202 90.4271429 273.399515 90.4271429 273.399515 92.7414286 277.425987 92.7414286 277.425987 94.1685714 273.399515 94.1685714 273.399515 96.5728571 278 96.5728571 278 98 272 98"/>
                <path d="M288.512295,96.5953039 C288.936475,96.5953039 289.326608,96.5145028 289.681747,96.3529006 C290.036412,96.1912983 290.340006,95.9718445 290.593001,95.6940608 C290.846469,95.4162771 291.044136,95.0911602 291.186948,94.718232 C291.330233,94.3453039 291.401166,93.9475138 291.401166,93.5248619 L291.401166,93.5 C291.401166,93.0773481 291.330233,92.6776456 291.186948,92.3004144 C291.044136,91.9236613 290.844578,91.5961538 290.587327,91.3183702 C290.330076,91.0410646 290.021753,90.8192201 289.663304,90.6533149 C289.303909,90.4878878 288.912358,90.4046961 288.487705,90.4046961 C288.063052,90.4046961 287.673865,90.4854972 287.318726,90.6470994 C286.963588,90.8087017 286.659521,91.0281555 286.406526,91.3059392 C286.153531,91.5837229 285.955391,91.9088398 285.812579,92.281768 C285.669294,92.6546961 285.598361,93.0524862 285.598361,93.4751381 L285.598361,93.5 C285.598361,93.9226519 285.669294,94.3223544 285.812579,94.6995856 C285.955391,95.0768168 286.155422,95.4043243 286.412673,95.6816298 C286.669924,95.9594135 286.977774,96.181258 287.337169,96.346207 C287.695618,96.5125903 288.087642,96.5953039 288.512295,96.5953039 M288.487705,98 C287.82377,98 287.217055,97.8819061 286.668033,97.6457182 C286.118537,97.4095304 285.647068,97.0882384 285.253625,96.6823204 C284.860183,96.2764025 284.553279,95.8021143 284.331967,95.2589779 C284.110183,94.7163196 284,94.1382809 284,93.5248619 L284,93.5 C284,92.886581 284.110183,92.3085423 284.331967,91.765884 C284.553279,91.2232257 284.864439,90.746547 285.266393,90.336326 C285.667875,89.926105 286.143127,89.6009881 286.69215,89.3604972 C287.241173,89.1200064 287.848361,89 288.512295,89 C289.17623,89 289.782945,89.1180939 290.331967,89.3538037 C290.88099,89.5904696 291.352459,89.9112835 291.745902,90.3176796 C292.139344,90.7240756 292.446721,91.1983638 292.668033,91.7410221 C292.889344,92.2836804 293,92.8617191 293,93.4751381 L293,93.5 C293,94.113419 292.889344,94.6914577 292.668033,95.234116 C292.446721,95.7767743 292.135088,96.253453 291.733607,96.663674 C291.331652,97.073895 290.8564,97.39949 290.307377,97.6395028 C289.758354,97.8799936 289.151639,98 288.487705,98" id="Fill-44" fill="#FFFFFF" mask="url(#mask-4)"/>
                <path d="M299.938897,93.68 C300.457526,93.68 300.866723,93.5296703 301.166489,93.2285165 C301.466681,92.9273626 301.616138,92.5396703 301.616138,92.0664286 L301.616138,92.0412088 C301.616138,91.5071429 301.464552,91.1051099 301.160954,90.8336264 C300.857356,90.5626374 300.449862,90.4271429 299.938897,90.4271429 L298.350649,90.4271429 L298.350649,93.68 L299.938897,93.68 Z M297,89 L300.055142,89 C300.505642,89 300.913562,89.0712088 301.278476,89.2121429 C301.644241,89.3535714 301.9538,89.5573077 302.208857,89.8228571 C302.463487,90.0889011 302.658931,90.4058791 302.795614,90.7742857 C302.931871,91.1431868 303,91.5546154 303,92.0085714 L303,92.0342857 C303,92.5401648 302.918671,92.9837363 302.756014,93.365 C302.593357,93.7467582 302.371514,94.0657143 302.090483,94.3233516 C301.809453,94.58 301.479881,94.7753297 301.102619,94.9078571 C300.725357,95.0408791 300.321695,95.1076374 299.893336,95.1076374 L298.350649,95.1076374 L298.350649,98 L297,98 L297,89 Z" id="Fill-45" fill="#FFFFFF" mask="url(#mask-4)"/>
                <polygon id="Fill-46" fill="#FFFFFF" mask="url(#mask-4)" points="308 89 309.244898 89 309.244898 96.5728571 313 96.5728571 313 98 308 98"/>
                <polygon id="Fill-47" fill="#FFFFFF" mask="url(#mask-4)" points="318 89 323.942202 89 323.942202 90.4271429 319.399515 90.4271429 319.399515 92.7414286 323.425987 92.7414286 323.425987 94.1685714 319.399515 94.1685714 319.399515 96.5728571 324 96.5728571 324 98 318 98"/>
            </g>
        </g>
    </g>
</svg>